<svg xmlns="http://www.w3.org/2000/svg" width="131" height="89" viewBox="0 0 131 89">
    <g fill="none">
        <path fill="#201D1E" d="M45.29 51.275c-.55 0-.986-.177-1.319-.53-.363.197-.81.292-1.34.302-1.111 0-1.787-.79-1.787-2.037 0-.676.218-1.216.665-1.621.447-.417 1.039-.625 1.767-.625h.332l-.063-.466c.448-.116.864-.21 1.248-.282v3.482c0 .562.249.842.758.842h.654v.935h-.914zm-2.295-6.308c-.006.347-.292.624-.64.618-.347-.006-.623-.293-.617-.64.001-.349.284-.632.633-.633.343 0 .624.27.624.655zm.779 2.473c-.197.01-.385.02-.56.02-.355.006-.693.153-.939.409-.246.255-.38.599-.371.953.01.905.333 1.362.965 1.362.306.001.61-.04.905-.124v-2.62zm.884-2.473c-.001.344-.28.622-.624.623-.172.003-.338-.064-.46-.186-.12-.121-.188-.287-.185-.459.007-.351.293-.633.645-.633.17.002.332.073.45.196.117.123.18.289.174.459z"/>
        <path fill="#201D1E" d="M49.742 51.275L45.914 51.275 45.914 50.338 49.739 50.338z"/>
        <path fill="#201D1E" d="M53.432 51.275h-.698c-.415 0-.758-.104-1.028-.322-.26.218-.592.322-.987.322H49.45v-.937h.998c.5 0 .748-.28.748-.852v-3.23L51 44.862l1.235-.28v4.905c0 .572.25.852.75.852h.446l.001.935z"/>
        <path fill="#201D1E" d="M59.845 51.275H57.53c-.033 0-.323-.041-.874-.124-.51.083-.81.124-.883.124h-2.63v-.937h1.777c-.352-.354-.53-.8-.53-1.35 0-.614.198-1.112.603-1.507.405-.396.956-.603 1.663-.603.706 0 1.258.198 1.662.603.403.405.603.893.603 1.507 0 .55-.176.997-.54 1.35h1.465v.937zm-3.376-6.06c0 .354-.286.64-.639.64-.352 0-.638-.286-.638-.64 0-.352.286-.638.638-.638.353 0 .64.286.64.639zm1.342 3.72c0-.445-.125-.787-.374-1.038-.441-.415-1.129-.415-1.57 0-.24.25-.364.593-.364 1.039 0 1.019.385 1.528 1.165 1.528.374 0 .665-.166.872-.498.176-.27.269-.614.269-1.03h.002zm.311-3.72c-.011.343-.291.614-.634.614-.342 0-.622-.271-.633-.613.01-.342.291-.613.633-.613.343 0 .623.271.634.613z"/>
        <path fill="#201D1E" d="M63.63 51.275h-.78c-.415 0-.757-.104-1.018-.312-.29.21-.64.32-.997.312h-1.236v-.937h.955c.509 0 .77-.27.77-.82V48.51l-.219-1.351 1.236-.28v2.64c0 .551.25.82.749.82h.54v.935zm-2.712-6.06c0 .168-.067.329-.186.446-.119.118-.28.182-.448.179-.168.002-.33-.064-.447-.184-.118-.12-.182-.282-.177-.45.001-.344.28-.623.624-.623.17-.005.333.06.453.18s.185.284.18.453zm1.662 0c-.002.347-.284.626-.63.625-.346-.001-.627-.282-.627-.628 0-.346.278-.627.624-.63.17-.003.332.063.452.182.12.12.185.283.181.452z"/>
        <path fill="#201D1E" d="M67.165 51.275L63.341 51.275 63.341 50.338 67.165 50.338z"/>
        <path fill="#201D1E" d="M70.7 51.275L66.875 51.275 66.875 50.338 70.7 50.338z"/>
        <path fill="#201D1E" d="M79.555 51.275h-.553c-.416 0-.76-.104-1.04-.312-.26.208-.592.312-.986.312-.527.009-1.034-.207-1.393-.593-.281.395-.696.593-1.257.593-.53 0-.998-.208-1.404-.613-.06.077-.126.15-.197.218-.28.26-.645.395-1.112.395h-1.206v-.937h.957c.498 0 .748-.27.748-.82l.02-2.007 1.02-.227v2.711c.243.231.567.358.903.354.489 0 .739-.27.739-.82v-2.017l1.029-.227v2.68c.23.248.554.387.892.385.49 0 .74-.27.74-.82v-1.02l-.2-1.35 1.238-.28v2.648c0 .54.25.81.748.81h.312l.002.937z"/>
        <path fill="#201D1E" d="M86.043 51.275h-.748c-.356.011-.705-.103-.986-.322-.51.602-1.124.904-1.84.904-.583 0-1.029-.26-1.33-.77-.24.129-.508.193-.78.188h-1.08v-.937h.803c.467 0 .707-.228.717-.686.052-1.485 1.018-2.39 2.598-2.39.512.002 1.02.083 1.507.24l-.125 1.08v.935c0 .552.25.821.759.821h.509l-.004.937zm-2.296-.737v-1.903l-.083-.582c-.161-.051-.33-.076-.5-.073-.862 0-1.297.54-1.297 1.633 0 .873.374 1.391.872 1.391.374 0 .707-.155 1.008-.463v-.003z"/>
        <path fill="#201D1E" d="M89.257 49.73c0 .966-.592 1.548-1.548 1.548h-1.944v-.94h1.694c.51 0 .759-.28.759-.852v-3.304l-.177-1.371 1.215-.291v5.21zM91.711 44.562L91.597 45.943 91.597 51.278 90.568 51.278 90.568 45.957 90.414 44.666zM98.83 51.275c-.55 0-.986-.177-1.319-.53-.362.197-.81.292-1.34.302-1.112 0-1.788-.79-1.788-2.037 0-.676.218-1.216.666-1.621.447-.417 1.038-.625 1.766-.625h.334l-.064-.466c.447-.116.863-.21 1.247-.282v3.482c0 .562.25.842.76.842h.654v.935h-.915zm-2.295-6.308c.002.229-.12.441-.32.554-.198.113-.443.109-.638-.011-.196-.12-.31-.336-.3-.565.002-.35.285-.632.634-.633.343 0 .624.27.624.655zm.78 2.473c-.198.01-.386.02-.562.02-.355.007-.692.154-.938.41-.246.255-.38.598-.371.952.01.905.331 1.362.966 1.362.306.001.61-.04.904-.124v-2.62zm.883-2.473c-.001.344-.28.622-.624.623-.172.003-.338-.064-.46-.186-.12-.121-.188-.287-.185-.459.007-.351.294-.633.645-.633.17.002.332.073.45.196.117.123.18.289.174.459z"/>
        <path fill="#201D1E" d="M103.281 51.275L99.457 51.275 99.457 50.338 103.281 50.338z"/>
        <path fill="#201D1E" d="M107.025 51.275h-.78c-.415 0-.758-.104-1.018-.312-.287.214-.639.324-.997.312h-1.237v-.937h.966c.51 0 .76-.27.76-.82V48.51l-.209-1.351 1.236-.28v2.64c0 .551.25.82.76.82h.519v.935zm-.54-5.06h-3.087v-.646h.478c0-.882.467-1.485 1.31-1.485.343 0 .665.114.987.343-.052.135-.125.312-.198.518-.158-.149-.365-.233-.582-.238-.467.022-.706.311-.696.862h.645l.592-.05.55.696z"/>
        <path fill="#201D1E" d="M107.96 52.948c-.01.348-.296.624-.644.624-.168 0-.33-.065-.45-.185-.119-.119-.185-.28-.184-.449.013-.345.298-.617.644-.614.345.002.626.278.634.624zm2.807-1.673h-.78c-.416 0-.759-.104-1.019-.312-.287.214-.639.324-.997.312h-1.236v-.937h.965c.51 0 .76-.27.76-.82v-1.07l-.209-1.341 1.237-.27v2.681c0 .552.25.821.758.821h.52v.936zm-1.154 1.673c-.006.346-.288.623-.634.624-.168.002-.33-.064-.447-.184-.118-.12-.182-.282-.177-.45.014-.34.294-.607.634-.604.34.002.616.274.624.614z"/>
        <path fill="#201D1E" d="M116.681 50.338h.52v.936h-6.724v-.936h1.496c-.105-.198-.159-.42-.155-.644 0-.499.197-.935.582-1.3.366-.352.853-.549 1.36-.55.385 0 .696.104.936.312.26.238.385.561.385.966l-.02 1.216h.582v-1.87c0-.778-.719-1.245-1.788-1.245-.628.007-1.247.145-1.819.405l.167-.768c.56-.219 1.205-.333 1.942-.333.737 0 1.31.135 1.736.395.53.302.8.759.8 1.372v2.044zm-2.556-1.372c0-.405-.146-.601-.426-.601-.229 0-.437.124-.634.383-.229.285-.35.642-.342 1.008 0 .385.237.582.726.582h.675v-1.372z"/>
        <path fill="#201D1E" d="M120.455 49.73c0 .966-.591 1.548-1.548 1.548h-1.944v-.94h1.695c.51 0 .759-.28.759-.852v-3.304l-.177-1.371 1.215-.291v5.21zM122.91 44.562L122.795 45.943 122.795 51.278 121.765 51.278 121.765 45.957 121.611 44.666zM48.992 60.954c0 .946-.583 1.518-1.528 1.518h-4.667c-.592 0-1.07-.21-1.423-.614-.354-.416-.53-.955-.53-1.631 0-.52.14-1.03.405-1.476h.925c-.323.457-.489.884-.489 1.268 0 1.007.416 1.517 1.237 1.517h4.281c.51 0 .77-.27.77-.82v-1.03l-.198-1.33 1.216-.281.001 2.88zm-3.213 3.19c-.01.348-.296.624-.644.624-.169.001-.33-.065-.45-.185-.12-.119-.185-.281-.184-.45.013-.345.299-.617.644-.614.345.003.626.28.634.624zM52.673 62.472h-.81c-.945 0-1.537-.583-1.537-1.553v-3.53l-.177-1.33 1.215-.28v4.904c0 .572.25.853.748.853h.561v.936z"/>
        <path fill="#201D1E" d="M56.208 62.472L52.383 62.472 52.383 61.536 56.208 61.536z"/>
        <path fill="#201D1E" d="M59.743 62.472L55.918 62.472 55.918 61.536 59.743 61.536z"/>
        <path fill="#201D1E" d="M63.277 62.472L59.452 62.472 59.452 61.536 63.277 61.536z"/>
        <path fill="#201D1E" d="M69.473 62.472H62.99v-.936h4.49c-.276-.624-.625-1.213-1.04-1.755-.572-.779-1.08-1.164-1.506-1.164-.312 0-.467.197-.467.581.012.239.061.474.145.697l-1.08.125c.114-1.362.821-2.183 1.736-2.183.707 0 1.423.458 2.141 1.372.546.706.981 1.49 1.288 2.329h.78l-.004.934zm-3.242-6.06c-.002.169-.071.33-.192.447-.122.117-.285.18-.453.177-.166 0-.325-.064-.442-.182-.118-.117-.183-.276-.182-.442.012-.342.292-.614.635-.614.342 0 .623.272.634.614z"/>
        <path fill="#201D1E" d="M73.019 62.472L69.194 62.472 69.194 61.536 73.019 61.536z"/>
        <path fill="#201D1E" d="M76.554 62.472L72.729 62.472 72.729 61.536 76.554 61.536z"/>
        <path fill="#201D1E" d="M80.088 62.472L76.264 62.472 76.264 61.536 80.088 61.536z"/>
        <path fill="#201D1E" d="M83.83 62.472h-.777c-.416 0-.758-.105-1.018-.313-.29.211-.64.321-.998.313H79.8v-.936h.957c.51 0 .77-.27.77-.82v-1.009l-.219-1.35 1.237-.28v2.64c0 .55.249.82.749.82h.54l-.003.935zm-2.713-6.056c.001.167-.066.328-.185.445-.12.117-.28.181-.448.178-.168.003-.33-.064-.447-.183-.117-.12-.181-.283-.176-.45 0-.344.28-.623.623-.624.17-.005.333.06.453.18s.185.284.18.454zm1.664 0c-.003.346-.285.624-.631.623-.346-.001-.626-.281-.627-.627 0-.346.278-.628.624-.63.17-.005.334.06.454.18s.186.284.182.454h-.002z"/>
        <path fill="#201D1E" d="M86.669 60.964c0 .925-.592 1.508-1.538 1.508h-1.59v-.936h1.34c.51 0 .76-.27.76-.82v-1.03l-.178-1.33 1.206-.271v2.88zm-.572-4.548c-.003.347-.286.626-.634.623-.347-.003-.626-.287-.623-.634.003-.347.287-.626.634-.623.168-.001.328.066.446.185.117.12.181.281.177.449zM93.508 62.472h-.686c-.426 0-.79-.105-1.07-.313-.272.214-.61.325-.956.313h-2.948l.446-.936h2.172L88.53 58.24l-1.008-1.206h1.371l2.391 4.126v-3.707l-.25-1.393 1.28-.28v4.697c0 .706.248 1.06.758 1.06h.436v.936z"/>
        <path fill="#201D1E" d="M97.044 62.472L93.219 62.472 93.219 61.536 97.044 61.536z"/>
        <path fill="#201D1E" d="M100.246 60.922c0 .967-.593 1.554-1.548 1.554h-1.944v-.94h1.695c.51 0 .759-.28.759-.853V57.38l-.178-1.368 1.215-.29.001 5.201z"/>
        <path fill="#999" d="M130.947 74.181S68.345 63.66 5.374 73.843c0 .002 63.026-4.86 125.573.338zM39.2 38.14s48.88.54 87.888-18.669c0 0-41.648 14.154-87.888 18.669z"/>
        <path fill="#5E5E5E" d="M18.641 84.704c-.007-.525-.158-.954-.452-1.293-.293-.34-.68-.518-1.164-.518-.081.016-.163.026-.246.031.024.22.04.373.04.454.077-.036.161-.055.246-.057.226 0 .436.116.556.308.15.235.229.54.229.938v.85l-.027.17h-2.002l-.202.727h3.144l-.12-.737-.002-.873zM35.253 87.124c-.266.006-.478.223-.48.489-.003.13.047.255.137.348.091.092.215.145.345.145.27 0 .49-.219.49-.49 0-.27-.22-.489-.49-.489l-.002-.003zM36.521 87.124c-.264.005-.475.221-.472.485-.006.13.041.255.13.348.09.093.213.146.342.146.27 0 .49-.22.49-.49s-.22-.49-.49-.49zM44.782 82.706c-.697 0-1.237.64-1.322 1.7l.822-.097c-.063-.174-.1-.356-.11-.54 0-.301.119-.454.357-.454.324 0 .712.299 1.147.905.317.424.582.884.793 1.369h-8.981c-.388 0-.578-.211-.578-.64v-2.087l-.942.21.158 1.044v.833c0 .429-.19.64-.58.64h-14.41c-.379 0-.569-.22-.569-.664v-3.82l-.927.22.135 1.035v2.75c0 .754.452 1.206 1.172 1.206h14.805c.274.01.542-.076.76-.242.2.161.46.242.777.242h10.28c-.054-.656-.363-1.399-.944-2.24-.624-.917-1.24-1.37-1.843-1.37zM51.405 85.23c-.293.007-.526.247-.524.54.01.287.248.513.534.507.287-.006.515-.242.513-.528-.003-.287-.236-.518-.523-.519zM57.781 81.89c.264-.006.475-.222.473-.486.006-.13-.041-.258-.13-.354-.089-.096-.212-.152-.343-.156-.271.003-.49.223-.491.494-.004.132.047.26.14.355.092.094.219.147.351.146zM56.516 81.89c.264-.006.474-.222.472-.486 0-.3-.214-.51-.472-.51-.27.004-.486.225-.484.494-.005.131.044.26.135.354.091.094.217.148.349.147zM74.105 82.924c-.323-.202-.766-.306-1.321-.306-.506-.009-1.008.079-1.48.258l-.128.6c.434-.203.907-.311 1.386-.317.816 0 1.363.364 1.363.97v1.458h-.443l.015-.945c0-.316-.095-.566-.294-.752-.198-.168-.452-.255-.712-.244-.389.001-.762.156-1.038.43-.284.26-.445.628-.444 1.013-.002.174.039.347.12.501H58.938c-.388 0-.579-.22-.579-.656v-2.71c-.292.056-.608.13-.95.218l.047.364h-.253c-.554 0-1.006.162-1.346.486-.34.323-.508.736-.508 1.262 0 .97.515 1.585 1.363 1.585.405-.009.742-.08 1.022-.234.253.275.585.413 1.006.413h15.976v-2.323c0-.48-.205-.836-.61-1.07zm-16.523 2.444c-.224.065-.456.098-.689.097-.483 0-.73-.356-.735-1.06-.01-.28.096-.552.293-.751.184-.193.438-.304.705-.308.135 0 .277-.008.426-.016v2.038zm15.186.22h-.515c-.372 0-.554-.155-.554-.454-.007-.284.086-.562.262-.785.15-.202.308-.3.482-.3.214 0 .325.154.325.473v1.066zM75.715 82.173L75.715 86.315 76.5 86.315 76.5 82.165 76.586 81.089 75.596 81.17zM78.148 82.084c.128 0 .252-.05.343-.141.091-.092.141-.216.14-.345.001-.269-.214-.49-.483-.493-.129 0-.252.054-.34.147-.09.093-.137.218-.133.346-.004.128.045.251.134.343.089.091.211.143.339.143zM83.787 84.147v.801c0 .428-.19.64-.578.64h-3.937c-.388 0-.578-.228-.578-.676v-2.025l-.945.218.156 1.084.009 2.031c0 .81-.364 1.326-1.093 1.561l.167.316c1.037-.291 1.6-.906 1.694-1.844.128.04.262.058.396.056h4.318c.722 0 1.173-.453 1.173-1.175v-2.24l-.919.211.137 1.042zM83.661 82.084c.128 0 .25-.052.339-.143.089-.092.137-.215.134-.343.006-.175-.084-.34-.234-.43-.151-.09-.34-.09-.49 0-.151.09-.241.255-.234.43-.004.13.046.256.138.347.092.092.217.142.347.139zM88.406 85.23c-.293.007-.526.248-.524.54.01.287.247.513.534.507.287-.006.515-.242.512-.528-.002-.287-.235-.518-.522-.519zM93.514 81.89c.264-.006.475-.223.473-.486 0-.3-.214-.51-.473-.51-.27.004-.485.224-.483.494-.005.132.043.26.135.354.09.095.217.148.348.147zM94.782 81.89c.264-.006.474-.223.473-.486.005-.13-.041-.258-.13-.354-.089-.096-.213-.152-.343-.156-.271.003-.49.223-.491.494-.004.132.047.26.14.355.092.094.219.147.35.146zM108.386 82.084c.127 0 .25-.052.338-.143.09-.092.138-.215.134-.343.007-.175-.083-.34-.234-.43-.15-.09-.339-.09-.49 0-.15.09-.24.255-.234.43-.003.13.047.256.138.347.092.092.218.142.348.139zM108.51 84.147v.801c0 .428-.19.64-.577.64H95.939c-.39 0-.58-.22-.58-.657v-2.71c-.292.056-.607.13-.95.219l.047.363h-.252c-.555 0-1.006.163-1.35.486-.345.323-.507.736-.507 1.263 0 .97.514 1.585 1.362 1.585.405-.01.743-.081 1.022-.235.253.275.586.413 1.005.413h12.386c.72 0 1.172-.453 1.172-1.174V82.9l-.92.211.137 1.036zm-13.93 1.221c-.223.065-.456.098-.689.097-.483 0-.728-.356-.736-1.06-.009-.28.097-.552.294-.751.184-.193.438-.304.704-.308.135 0 .277-.008.428-.016v2.038zM116.062 83.28c-.348.365-.523.842-.523 1.44.001.305.083.604.237.868h-4.103c-.379 0-.569-.22-.569-.664v-3.82l-.927.22.135 1.034v2.751c0 .753.452 1.206 1.173 1.206h5.3c1.18 0 1.775-.478 1.775-1.424v-1.124l.067-.843c-.365-.12-.747-.183-1.132-.185-.611 0-1.084.178-1.433.542zm1.735.541c.036.225.054.452.056.68 0 .72-.285 1.085-.847 1.085-.452 0-.683-.338-.683-1.02 0-.85.334-1.27.998-1.27.14-.004.28.015.413.056l.063.47zM119.627 82.173L119.627 86.315 120.411 86.315 120.411 82.165 120.498 81.089 119.508 81.17zM120.434 80.387l-.292.032h-.39c0-.34.112-.51.334-.509.072-.009.167.048.285.153l.096-.25c-.137-.102-.302-.159-.473-.162-.405 0-.633.322-.633.768h-.285v.299h1.632l-.274-.33z"/>
        <path fill="#201D1E" d="M28.735 26.538c-5.35-2.32-16.386-4.163-22.689-11.754C2.46 10.462.386 4.52.86 7.243c-.046.568 1.616 13.014 13.608 21.111 3.942 2.66 14.736 7.225 18.439 11.344-.002 0 .033-11.339-4.172-13.16z"/>
        <path fill="#00934C" d="M15.89 44.412C9.285 39.332 4.357 33.29 1.946 28.46c-.343-.691-.597.082-.472 1.013.941 6.888 4.406 12.414 9.568 18.58 6.023 7.195 8.427 9.135 8.914 17.068.466 7.657 8.421-2.48 8.71-4.552.516-3.266-3.87-9.305-12.774-16.157z"/>
        <path fill="#DB2B29" d="M13.887 30.309C4.994 24.44.549 14.217.459 13.807c-.23-.513-.445-1.1-.441.093.016 3.797 1.25 8.367 1.657 9.359 1.612 5.456 6.467 12.565 14.028 18.502 8.916 6.997 13.09 10.84 14.478 15.836 1.669-2.056 4.558-11.422 2.936-14.428-2.905-5.479-9.572-6.486-19.23-12.86z"/>
        <path fill="#FFF" d="M26.32 40.447L26.785 41.975 28.291 41.956 27.458 43.311 28.403 44.56 26.9 44.72 26.569 46.296 25.531 45.14 24.174 45.859 24.375 44.259 23.018 43.575 24.312 42.735 23.973 41.166 25.384 41.722z"/>
        <path fill="#AEAFB1" d="M12.939 6.312L27.374 11.499 33.084 4.583 20.217 0z"/>
        <path fill="#818385" d="M19.815 8.785L19.815 12.384 12.939 17.208 12.939 6.312z"/>
        <path fill="#B2B3B3" d="M19.815 12.384L27.026 14.931 26.222 22.597 12.953 17.208z"/>
        <path fill="#BDBFC1" d="M27.022 14.927L31.637 16.646 26.228 22.587z"/>
        <path fill="#96989A" d="M27.022 14.927L27.374 11.509 33.073 4.593 31.637 16.646z"/>
        <path fill="#8B8C8E" d="M19.815 8.785L19.815 12.384 27.022 14.927 27.374 11.509z"/>
        <path fill="#6E6F71" d="M20.277 4.295c-.14-.01-.279.04-.383.135-.088.09-.152.235-.135.472l6.708 2.475s.566 0 .405-.617l-6.595-2.465z"/>
        <path fill="#6E6F71" d="M26.656 6.975L27.804 3.532 21.027 1.104 20.062 4.535z"/>
        <path fill="#FFF" d="M26.281 6.835L27.273 3.761 21.269 1.608 20.41 4.664z"/>
    </g>
</svg>
